<?xml version="1.0" encoding="UTF-8"?><svg id="_レイヤー_2" xmlns="http://www.w3.org/2000/svg" xmlns:xlink="http://www.w3.org/1999/xlink" viewBox="0 0 146.62 146.62"><defs><style>.cls-1{fill:url(#WLF_GRAD);fill-rule:evenodd;}.cls-1,.cls-2{stroke-width:0px;}.cls-2{fill:#040000;}</style><linearGradient id="WLF_GRAD" x1="33.49" y1="109" x2="109.99" y2="32.5" gradientUnits="userSpaceOnUse"><stop offset="0" stop-color="#a634fb"/><stop offset=".31" stop-color="#bc43e8"/><stop offset=".95" stop-color="#f56cb8"/><stop offset="1" stop-color="#fa70b5"/></linearGradient></defs><g id="TokenMark"><circle class="cls-2" cx="73.31" cy="73.31" r="73.31"/><path class="cls-1" d="M43.42,41.05c1.16,0,2.21.68,2.68,1.74l9.28,20.8c.07.15.18.28.33.35.36.19.8.05.99-.31l10.87-20.99c.5-.97,1.51-1.58,2.6-1.58h6.54c1.13,0,2.15.65,2.64,1.66l10.07,20.93c.07.15.19.26.33.34.36.18.8.04.98-.32l10.61-20.99c.5-.99,1.51-1.61,2.62-1.61h9.52c.22,0,.44.05.64.15.73.36,1.03,1.23.67,1.96l-23.45,47.96c-.14.28-.36.51-.65.66-.72.37-1.6.09-1.98-.63l-14.26-27.67c-.14-.27-.35-.48-.62-.62-.72-.38-1.6-.11-1.98.61l-14.71,27.78c-.15.28-.38.5-.67.64-.73.35-1.61.03-1.95-.7l-22.75-48.05c-.09-.2-.14-.41-.14-.63,0-.81.66-1.47,1.47-1.47h10.32ZM26.28,42.71c.74-.34,1.61-.01,1.94.72l26.75,58.51c.14.3.37.54.66.69.72.37,1.6.09,1.97-.63l15.06-29.3c.07-.14.18-.25.32-.32.36-.18.8-.04.98.33l14.79,29.39c.15.3.39.53.7.67.74.34,1.61.02,1.95-.72l27.05-58.62c.11-.25.29-.46.52-.61.67-.45,1.58-.27,2.03.41l6.1,9.16c.28.42.32.96.11,1.43l-29.87,64.7c-.48,1.04-1.52,1.7-2.66,1.7h-10.73c-.57,0-1.1-.34-1.33-.86l-8.64-18.94c-.07-.16-.2-.29-.36-.36-.37-.17-.8,0-.97.36l-8.74,18.95c-.24.52-.76.85-1.33.85h-10.63c-1.14,0-2.18-.66-2.66-1.7L19.41,53.83c-.21-.46-.17-1.01.11-1.43l6.16-9.17c.15-.22.36-.4.61-.52Z"/></g></svg>